<?xml version="1.0" encoding="UTF-8"?>
<!DOCTYPE svg PUBLIC "-//W3C//DTD SVG 1.1//EN" "http://www.w3.org/Graphics/SVG/1.1/DTD/svg11.dtd">
<!-- Creator: CorelDRAW -->
<svg xmlns="http://www.w3.org/2000/svg" xml:space="preserve" width="3.93701in" height="1.25366in" version="1.1" style="shape-rendering:geometricPrecision; text-rendering:geometricPrecision; image-rendering:optimizeQuality; fill-rule:evenodd; clip-rule:evenodd"
viewBox="0 0 3937.01 1253.66"
 xmlns:xlink="http://www.w3.org/1999/xlink"
 xmlns:xodm="http://www.corel.com/coreldraw/odm/2003">
 <defs>
  <style type="text/css">
   <![CDATA[
    .fil1 {fill:#242424}
    .fil0 {fill:#242424;fill-rule:nonzero}
   ]]>
  </style>
 </defs>
 <g id="Camada_x0020_1">
  <metadata id="CorelCorpID_0Corel-Layer"/>
  <g id="_2394001334784">
   <g>
    <path class="fil0" d="M526.7 709.24c-4.42,65.88 -18.39,177.31 -22.69,181.83 -0.02,0.02 -0.02,0.03 -0.05,0.03 -0.03,0 -0.04,-0.01 -0.06,-0.03 -4.3,-4.53 -18.27,-115.95 -22.69,-181.83 -2.76,-41.22 -4.38,-83.96 -5.24,-127.54 -9.09,-0.17 -18.22,-0.52 -27.35,-1.04 -3.81,-0.22 -7.67,-0.42 -11.57,-0.61 0.19,20.66 0.72,48.07 2.09,80.02 5.34,124.51 18.59,204.53 31.26,308.79 7.1,58.43 16.46,144.52 23.87,251.39 1.09,6.81 5.77,13.95 9.5,13.95 0.04,0 0.08,-0.01 0.12,-0.02l0.06 0.01 0.05 -0.01c0.04,0 0.08,0.02 0.13,0.02 3.73,0 8.41,-7.15 9.5,-13.95 7.41,-106.87 16.77,-192.96 23.87,-251.39 12.67,-104.26 25.93,-184.28 31.26,-308.79 1.49,-34.64 1.99,-63.94 2.14,-85.09 -12.76,2.3 -25.76,3.96 -38.93,5.06 -0.85,44.15 -2.47,87.46 -5.27,129.2zm-51.48 -189.16c-0.63,-118.05 2.86,-239.64 3.06,-351.3l0.06 -80.17c0.01,-14.09 11.52,-25.61 25.61,-25.61 14.09,0 25.6,11.52 25.61,25.61l0.06 80.17c0.2,110.99 3.65,231.8 3.07,349.19 8.02,-0.69 16.01,-1.57 23.95,-2.72 4.84,-0.7 9.61,-1.48 14.3,-2.37l0 -344.09 0 -81.96c0,-36.04 -30.41,-66.94 -66.99,-66.94 -36.58,0 -66.99,30.9 -66.99,66.94l0 81.96 0 350.85c7.96,0.16 15.92,0.29 23.88,0.37 4.78,0.04 9.58,0.07 14.38,0.07z"/>
    <path class="fil1" d="M615.31 198.24c99.78,59.93 137.11,161.22 93.95,233.33 -71.74,119.87 -215.15,95 -349.96,95.96 -80.1,0.57 -158.69,28.64 -211.57,106.05 -41.42,60.62 -51.93,126.8 -31.23,208.15 -35.31,-63.6 -55.45,-136.79 -55.45,-214.69 0,-206.16 140.85,-379.41 331.57,-428.8l0 -45.49c-215.35,50.36 -375.74,243.59 -375.74,474.29 0,247.64 184.8,452.1 424.02,483.03 -1.39,-15.08 -2.85,-30.15 -4.39,-45.22 -79.06,-12.08 -151.23,-45.07 -210.71,-93.14l0.58 0.04c-80.58,-89.67 -101.07,-218.03 -50.95,-304.46 50.12,-86.43 133.52,-103.51 273.72,-95.6 140.19,7.91 231.23,-26.51 286.72,-108.43 55.44,-81.85 18.13,-193.13 -23.13,-226.9 139.34,74.62 234.14,221.57 234.14,390.69 0,221.68 -162.86,405.33 -375.46,437.81 -1.54,15.07 -3,30.14 -4.39,45.22 239.22,-30.93 424.02,-235.39 424.02,-483.03 0,-230.7 -160.39,-423.93 -375.74,-474.29l0 45.49z"/>
   </g>
   <g>
    <path class="fil0" d="M1312.42 186.02l210.69 0c35.01,0 66.07,7.04 93.18,21.13 27.11,14.09 48.24,33.73 63.4,58.92 15.16,25.19 22.74,54 22.74,86.45 0,32.44 -7.58,61.26 -22.74,86.45 -15.15,25.19 -36.29,44.83 -63.4,58.91 -27.11,14.09 -58.17,21.13 -93.18,21.13l-165.22 0 0.64 179.31 -46.11 0 0 -512.31zm210.69 292.02c26.04,0 48.99,-5.34 68.84,-16.01 19.85,-10.67 35.43,-25.51 46.75,-44.5 11.31,-19 16.97,-40.67 16.97,-65 -0.43,-24.33 -6.19,-46.11 -17.29,-65.32 -11.1,-19.21 -26.58,-34.05 -46.43,-44.51 -19.85,-10.46 -42.8,-15.69 -68.84,-15.69l-165.22 0 0.64 251.04 164.58 0z"/>
    <polygon id="_1" class="fil0" points="2044.91,531.83 1818.21,186.02 1870.08,186.02 2068.61,488.28 2267.13,186.02 2319,186.02 2091.02,531.83 2091.02,698.33 2044.91,698.33 "/>
    <polygon id="_2" class="fil0" points="2606.41,226.36 2434.79,226.36 2434.79,186.02 2820.94,186.02 2820.94,226.36 2651.88,226.36 2651.24,698.33 2605.77,698.33 "/>
    <polygon id="_3" class="fil0" points="2981.56,186.02 3338.26,186.02 3338.26,227 3027.67,227 3027.67,412.07 3299.84,412.07 3299.84,453.06 3027.67,453.06 3027.67,657.35 3338.26,657.35 3338.26,698.33 2981.56,698.33 "/>
    <path id="_4" class="fil0" d="M3524.5 186.02l223.5 0c32.45,0 61.26,6.51 86.45,19.53 25.19,13.02 44.83,31.17 58.92,54.43 14.09,23.27 21.13,49.85 21.13,79.73 0,26.47 -5.87,50.48 -17.61,72.05 -11.74,21.56 -28.29,39.28 -49.63,53.15 -21.35,13.88 -45.68,22.52 -73,25.94l140.25 207.49 -53.15 0 -137.69 -204.93 -153.69 0 0.64 204.93 -46.11 0 0 -512.31zm223.5 266.41c23.48,0 44.19,-4.8 62.12,-14.41 17.93,-9.61 32.02,-22.95 42.27,-40.03 10.24,-17.07 15.37,-36.5 15.37,-58.28 -0.43,-21.77 -5.66,-41.3 -15.69,-58.59 -10.03,-17.29 -24.01,-30.63 -41.94,-40.02 -17.93,-9.39 -38.64,-14.09 -62.12,-14.09l-178.03 0 0.64 225.42 177.39 0z"/>
    <g>
     <g>
      <path class="fil0" d="M1553.53 923.83c-10.85,0 -19.64,8.8 -19.64,19.64 0,10.84 8.8,19.63 19.64,19.63 10.84,0 19.64,-8.79 19.64,-19.63 0,-10.85 -8.8,-19.64 -19.64,-19.64z"/>
      <path class="fil0" d="M3673.44 923.83c-10.84,0 -19.64,8.8 -19.64,19.64 0,10.84 8.8,19.63 19.64,19.63 10.85,0 19.64,-8.79 19.64,-19.63 0,-10.85 -8.8,-19.64 -19.64,-19.64z"/>
     </g>
     <path class="fil0" d="M1764.42 857.5l77.17 0c10.46,0 19.74,1.86 27.84,5.59 8.1,3.72 14.44,8.96 19.02,15.69 4.59,6.74 6.88,14.48 6.88,23.22 0,7.74 -2.29,14.94 -6.88,21.61 -4.59,6.66 -10.89,11.93 -18.92,15.8 6.31,2 11.9,5.12 16.77,9.35 4.87,4.23 8.67,9.17 11.39,14.83 2.72,5.66 4.08,11.65 4.08,17.95 0,9.31 -2.36,17.63 -7.09,24.94 -4.73,7.31 -11.32,12.97 -19.78,16.98 -8.45,4.01 -18.13,6.02 -29.02,6.02l-81.47 0 0 -171.97zm81.47 150.26c5.88,0 11.07,-1.18 15.59,-3.54 4.51,-2.37 8.02,-5.7 10.53,-10 2.51,-4.3 3.76,-9.31 3.76,-15.05 0,-5.45 -1.22,-10.32 -3.65,-14.62 -2.44,-4.3 -5.91,-7.67 -10.43,-10.1 -4.51,-2.44 -9.78,-3.66 -15.8,-3.66l-56.32 0 0 56.96 56.32 0zm-4.3 -78.03c5.59,0 10.46,-1.07 14.62,-3.22 4.16,-2.15 7.38,-5.16 9.67,-9.03 2.3,-3.87 3.44,-8.17 3.44,-12.9 0,-7.59 -2.58,-13.72 -7.74,-18.38 -5.16,-4.66 -11.82,-6.98 -19.99,-6.98l-52.02 0 0 50.52 52.02 0z"/>
     <path id="_1_0" class="fil0" d="M2058.74 1031.83c-17.34,0 -32.78,-3.73 -46.33,-11.18 -13.54,-7.45 -24.11,-17.87 -31.7,-31.28 -7.59,-13.4 -11.39,-28.77 -11.39,-46.11 0,-17.2 3.8,-32.49 11.39,-45.89 7.59,-13.4 18.16,-23.79 31.7,-31.17 13.54,-7.38 28.98,-11.07 46.33,-11.07 17.34,0 32.78,3.69 46.32,11.07 13.54,7.38 24.11,17.77 31.7,31.17 7.6,13.4 11.39,28.7 11.39,45.89 0,17.34 -3.8,32.71 -11.39,46.11 -7.59,13.4 -18.16,23.83 -31.7,31.28 -13.54,7.45 -28.98,11.18 -46.32,11.18zm0 -22.57c12.32,0 23.32,-2.76 33,-8.28 9.67,-5.52 17.16,-13.3 22.46,-23.33 5.3,-10.03 8.03,-21.5 8.17,-34.39 0,-12.9 -2.69,-24.29 -8.06,-34.18 -5.37,-9.89 -12.9,-17.59 -22.57,-23.11 -9.67,-5.52 -20.67,-8.28 -33,-8.28 -12.33,0 -23.33,2.76 -33,8.28 -9.67,5.52 -17.2,13.22 -22.57,23.11 -5.37,9.89 -8.06,21.28 -8.06,34.18 0.14,12.9 2.87,24.36 8.17,34.39 5.3,10.03 12.79,17.81 22.46,23.33 9.67,5.52 20.67,8.28 33,8.28z"/>
     <path id="_2_1" class="fil0" d="M2224.3 857.5l75.02 0c10.89,0 20.57,2.19 29.02,6.56 8.46,4.37 15.05,10.46 19.78,18.27 4.73,7.81 7.09,16.73 7.09,26.76 0,8.17 -1.76,15.73 -5.26,22.68 -3.51,6.95 -8.46,12.79 -14.83,17.52 -6.38,4.73 -13.72,7.95 -22.03,9.67l47.5 70.51 -28.8 0 -46.22 -68.79 -36.11 0 0 68.79 -25.15 0 0 -171.97zm75.02 80.61c5.88,0.14 11.07,-1.04 15.59,-3.55 4.51,-2.51 8.06,-5.98 10.64,-10.43 2.58,-4.44 3.87,-9.46 3.87,-15.05 -0.14,-5.59 -1.47,-10.61 -3.98,-15.05 -2.51,-4.44 -6.02,-7.92 -10.53,-10.43 -4.52,-2.51 -9.71,-3.69 -15.59,-3.55l-49.87 -0.22 0 58.26 49.87 0z"/>
     <path id="_3_2" class="fil0" d="M2433.07 857.5l64.27 0c17.2,0 32.53,3.69 46,11.07 13.47,7.38 23.97,17.63 31.49,30.74 7.52,13.11 11.28,28.05 11.28,44.82 0,16.48 -3.76,31.2 -11.28,44.17 -7.52,12.97 -18.02,23.07 -31.49,30.31 -13.47,7.24 -28.81,10.85 -46,10.85l-64.27 0 0 -171.97zm63.63 149.4c12.46,0.14 23.46,-2.47 33,-7.85 9.53,-5.37 16.98,-12.83 22.35,-22.35 5.37,-9.53 8.06,-20.39 8.06,-32.57 0,-12.47 -2.65,-23.57 -7.96,-33.32 -5.3,-9.74 -12.79,-17.3 -22.46,-22.68 -9.67,-5.37 -20.67,-8.06 -33,-8.06l-38.48 -0.22 0 127.04 38.48 0z"/>
     <path id="_4_3" class="fil0" d="M2707.83 857.5l25.15 0 71.8 171.97 -26.01 0 -19.56 -47.72 -77.17 0 -19.56 47.72 -26.01 0 71.37 -171.97zm42.35 101.68l-29.66 -71.58 -29.67 71.58 59.33 0z"/>
     <path id="_5" class="fil0" d="M2874.46 857.5l64.27 0c17.2,0 32.53,3.69 46,11.07 13.47,7.38 23.97,17.63 31.49,30.74 7.52,13.11 11.28,28.05 11.28,44.82 0,16.48 -3.76,31.2 -11.28,44.17 -7.52,12.97 -18.02,23.07 -31.49,30.31 -13.47,7.24 -28.81,10.85 -46,10.85l-64.27 0 0 -171.97zm63.63 149.4c12.46,0.14 23.46,-2.47 33,-7.85 9.53,-5.37 16.98,-12.83 22.35,-22.35 5.37,-9.53 8.06,-20.39 8.06,-32.57 0,-12.47 -2.65,-23.57 -7.96,-33.32 -5.3,-9.74 -12.79,-17.3 -22.46,-22.68 -9.67,-5.37 -20.67,-8.06 -33,-8.06l-38.48 -0.22 0 127.04 38.48 0z"/>
     <path id="_6" class="fil0" d="M3184.48 1031.83c-17.34,0 -32.78,-3.73 -46.33,-11.18 -13.54,-7.45 -24.11,-17.87 -31.7,-31.28 -7.59,-13.4 -11.39,-28.77 -11.39,-46.11 0,-17.2 3.8,-32.49 11.39,-45.89 7.59,-13.4 18.16,-23.79 31.7,-31.17 13.54,-7.38 28.98,-11.07 46.33,-11.07 17.34,0 32.78,3.69 46.32,11.07 13.54,7.38 24.11,17.77 31.7,31.17 7.6,13.4 11.39,28.7 11.39,45.89 0,17.34 -3.8,32.71 -11.39,46.11 -7.59,13.4 -18.16,23.83 -31.7,31.28 -13.54,7.45 -28.98,11.18 -46.32,11.18zm0 -22.57c12.32,0 23.32,-2.76 33,-8.28 9.67,-5.52 17.16,-13.3 22.46,-23.33 5.3,-10.03 8.03,-21.5 8.17,-34.39 0,-12.9 -2.69,-24.29 -8.06,-34.18 -5.37,-9.89 -12.9,-17.59 -22.57,-23.11 -9.67,-5.52 -20.67,-8.28 -33,-8.28 -12.33,0 -23.33,2.76 -33,8.28 -9.67,5.52 -17.2,13.22 -22.57,23.11 -5.37,9.89 -8.06,21.28 -8.06,34.18 0.14,12.9 2.87,24.36 8.17,34.39 5.3,10.03 12.79,17.81 22.46,23.33 9.67,5.52 20.67,8.28 33,8.28z"/>
     <path id="_7" class="fil0" d="M3405.5 1031.83c-12.76,0 -23.93,-2.58 -33.54,-7.74 -9.6,-5.16 -16.98,-12.29 -22.14,-21.39 -5.16,-9.1 -7.74,-19.52 -7.74,-31.28l26.01 0c0,7.31 1.51,13.87 4.52,19.67 3.01,5.8 7.34,10.28 13,13.43 5.66,3.15 12.29,4.73 19.89,4.73 5.87,0 11.14,-0.97 15.8,-2.9 4.66,-1.94 8.35,-4.8 11.07,-8.6 2.72,-3.8 4.08,-8.35 4.08,-13.65 0,-5.02 -1.18,-9.2 -3.55,-12.57 -2.36,-3.37 -5.59,-6.2 -9.67,-8.49 -4.08,-2.3 -9.71,-4.87 -16.87,-7.74 -1.29,-0.57 -2.22,-0.97 -2.8,-1.18 -0.57,-0.22 -1.5,-0.61 -2.79,-1.19 -1.43,-0.57 -3.08,-1.22 -4.94,-1.93 -11.75,-4.59 -20.96,-8.78 -27.62,-12.57 -6.67,-3.8 -12,-8.63 -16.02,-14.51 -4.01,-5.87 -6.02,-13.26 -6.02,-22.14 0,-9.75 2.47,-18.13 7.42,-25.15 4.94,-7.02 11.57,-12.36 19.88,-16.01 8.31,-3.65 17.41,-5.48 27.3,-5.48 11.18,0 20.89,2.33 29.13,6.99 8.24,4.66 14.58,11.07 19.02,19.24 4.44,8.17 6.67,17.56 6.67,28.16l-25.15 0c0,-6.16 -1.25,-11.68 -3.76,-16.55 -2.51,-4.87 -6.06,-8.63 -10.64,-11.28 -4.59,-2.65 -9.89,-3.98 -15.91,-3.98 -8.03,0 -14.69,2.26 -19.99,6.77 -5.3,4.52 -7.95,10.14 -7.95,16.87 0,4.73 1.32,8.71 3.98,11.93 2.65,3.22 6.16,5.98 10.53,8.28 4.37,2.29 10.71,4.94 19.02,7.95 2.87,1 5.16,1.86 6.88,2.58 11.46,4.01 20.67,8.06 27.62,12.15 6.95,4.09 12.39,9.21 16.33,15.37 3.94,6.16 5.91,13.9 5.91,23.22 0,10.03 -2.47,18.77 -7.42,26.22 -4.94,7.45 -11.72,13.11 -20.31,16.98 -8.6,3.87 -18.34,5.81 -29.23,5.81z"/>
    </g>
   </g>
  </g>
 </g>
</svg>
