<svg width="17" height="16" viewBox="0 0 17 16" fill="none" xmlns="http://www.w3.org/2000/svg">
<path fill-rule="evenodd" clip-rule="evenodd" d="M16.2699 2.96474C16.3953 3.02406 16.5059 3.11057 16.5938 3.21797C16.6819 3.32518 16.7452 3.45064 16.7789 3.58527C16.8127 3.7199 16.8162 3.86035 16.7891 3.99648L15.6641 9.62148C15.621 9.83391 15.5059 10.025 15.3382 10.1623C15.1705 10.2996 14.9605 10.3747 14.7437 10.375H5.30391L5.52422 11.625H15C15.1658 11.625 15.3247 11.6908 15.4419 11.8081C15.5592 11.9253 15.625 12.0842 15.625 12.25C15.625 12.4158 15.5592 12.5747 15.4419 12.6919C15.3247 12.8092 15.1658 12.875 15 12.875H5C4.85305 12.875 4.71079 12.8233 4.5982 12.7288C4.48562 12.6344 4.40991 12.5033 4.38438 12.3586L2.60078 2.25H0.625C0.45924 2.25 0.300268 2.18415 0.183058 2.06694C0.065848 1.94973 0 1.79076 0 1.625C0 1.45924 0.065848 1.30027 0.183058 1.18306C0.300268 1.06585 0.45924 1 0.625 1H3.125C3.27195 0.999969 3.41421 1.05172 3.5268 1.14616C3.63938 1.2406 3.71509 1.37169 3.74063 1.51641L3.98008 2.875H15.8687C16.0075 2.87476 16.1445 2.90542 16.2699 2.96474ZM5.625 16C6.31535 16 6.875 15.4404 6.875 14.75C6.875 14.0596 6.31535 13.5 5.625 13.5C4.93464 13.5 4.375 14.0596 4.375 14.75C4.375 15.4404 4.93464 16 5.625 16ZM14.375 16C15.0654 16 15.625 15.4404 15.625 14.75C15.625 14.0596 15.0654 13.5 14.375 13.5C13.6846 13.5 13.125 14.0596 13.125 14.75C13.125 15.4404 13.6846 16 14.375 16Z" fill="#242424"/>
</svg>
