<svg width="16" height="16" viewBox="0 0 16 16" fill="none" xmlns="http://www.w3.org/2000/svg">
<path fill-rule="evenodd" clip-rule="evenodd" d="M13.337 5.68632L15.8303 8.07165C16.0433 8.27531 16.0603 8.62531 15.8556 8.83731C15.7576 8.93892 15.6233 8.99753 15.4822 9.00027C15.341 9.00302 15.2045 8.9497 15.1026 8.85198L8.18533 2.24266C8.1357 2.19519 8.06967 2.16869 8.00099 2.16869C7.93232 2.16869 7.86629 2.19519 7.81666 2.24266L0.90001 8.85198C0.84784 8.90212 0.786013 8.94111 0.718292 8.9666C0.650571 8.99208 0.578373 9.00352 0.506092 9.00021C0.43381 8.99691 0.362957 8.97893 0.297845 8.94737C0.232732 8.91581 0.174723 8.87134 0.127346 8.81665C-0.0613206 8.59998 -0.0353206 8.27098 0.172012 8.07098L7.26199 1.28767C7.44266 1.10467 7.71066 1 7.99999 1C8.29033 1 8.55899 1.10467 8.73966 1.28733L10.6703 3.13333V2.06666C10.6703 1.92522 10.7265 1.78956 10.8265 1.68954C10.9265 1.58952 11.0622 1.53333 11.2037 1.53333H12.8036C12.9451 1.53333 13.0808 1.58952 13.1808 1.68954C13.2808 1.78956 13.337 1.92522 13.337 2.06666V5.68632ZM8.00099 3.23536C8.06967 3.23536 8.1357 3.26186 8.18533 3.30933L14.3196 9.17165C14.3457 9.19658 14.3664 9.22654 14.3806 9.25971C14.3947 9.29288 14.402 9.32858 14.402 9.36465V14.8666C14.402 15.1495 14.2896 15.4208 14.0896 15.6209C13.8895 15.8209 13.6182 15.9333 13.3353 15.9333H10.1333C9.99187 15.9333 9.85622 15.8771 9.7562 15.7771C9.65618 15.6771 9.59999 15.5414 9.59999 15.4V10.8666C9.59999 10.7959 9.57189 10.7281 9.52188 10.6781C9.47188 10.6281 9.40405 10.6 9.33332 10.6H6.66666C6.59594 10.6 6.52811 10.6281 6.4781 10.6781C6.42809 10.7281 6.4 10.7959 6.4 10.8666V15.4C6.4 15.5414 6.34381 15.6771 6.24379 15.7771C6.14377 15.8771 6.00811 15.9333 5.86667 15.9333H2.66334C2.38044 15.9333 2.10913 15.8209 1.90909 15.6209C1.70906 15.4208 1.59668 15.1495 1.59668 14.8666L1.59768 9.36465C1.59763 9.32858 1.60491 9.29288 1.61906 9.25971C1.63321 9.22654 1.65395 9.19658 1.68001 9.17165L7.81666 3.30933C7.86629 3.26186 7.93232 3.23536 8.00099 3.23536Z" fill="#242424"/>
</svg>
