<svg width="16" height="16" viewBox="0 0 16 16" fill="none" xmlns="http://www.w3.org/2000/svg">
<path d="M15.4667 13.9286H15.0667C15.0314 13.9286 14.9974 13.9145 14.9724 13.8893C14.9474 13.8642 14.9334 13.8302 14.9334 13.7946V8.08627C14.9337 8.06496 14.9289 8.04389 14.9195 8.0248C14.9101 8.00572 14.8962 7.98917 14.8791 7.97653C14.8621 7.96389 14.8422 7.95553 14.8213 7.95214C14.8003 7.94874 14.7789 7.95042 14.7587 7.95703C14.4528 8.05356 14.1352 8.10741 13.8147 8.11708C13.7754 8.11708 13.738 8.11875 13.7014 8.11875C13.0849 8.12024 12.4784 7.963 11.9397 7.66205C11.8989 7.63927 11.853 7.62732 11.8063 7.62732C11.7597 7.62732 11.7138 7.63927 11.673 7.66205C11.1344 7.96295 10.528 8.12018 9.91166 8.11875C9.29878 8.11963 8.69619 7.96053 8.16297 7.65703C8.12185 7.63364 8.07539 7.62135 8.02813 7.62135C7.98088 7.62135 7.93442 7.63364 7.8933 7.65703C7.35205 7.96166 6.7417 8.12081 6.12128 8.11908C5.50429 8.11948 4.89791 7.95789 4.36226 7.65033C4.32081 7.62665 4.27394 7.61419 4.22626 7.61419C4.17857 7.61419 4.1317 7.62665 4.09025 7.65033C3.5546 7.95789 2.94822 8.11948 2.33123 8.11908C2.2949 8.11908 2.25823 8.11908 2.2189 8.11741H2.2169C1.88516 8.10737 1.55654 8.04999 1.24089 7.94699C1.2209 7.9405 1.19967 7.93885 1.17892 7.94216C1.15818 7.94548 1.13851 7.95367 1.12151 7.96608C1.10452 7.97848 1.09068 7.99474 1.08113 8.01353C1.07158 8.03233 1.06659 8.05312 1.06655 8.07422V13.7946C1.06655 13.8302 1.0525 13.8642 1.0275 13.8893C1.00249 13.9145 0.96858 13.9286 0.933218 13.9286H0.54988C0.261877 13.9286 0.0132071 14.1509 0.000540308 14.4402C-0.00270191 14.5125 0.00867294 14.5847 0.0339784 14.6524C0.0592838 14.7202 0.0979951 14.7821 0.147776 14.8344C0.197557 14.8867 0.257375 14.9284 0.32362 14.9568C0.389865 14.9853 0.461164 15 0.533213 15H15.4501C15.7381 15 15.9867 14.7777 15.9994 14.4884C16.0026 14.4161 15.9913 14.3439 15.966 14.2761C15.9407 14.2084 15.9019 14.1465 15.8522 14.0941C15.8024 14.0418 15.7426 14.0002 15.6763 13.9717C15.6101 13.9433 15.5388 13.9286 15.4667 13.9286ZM6.93329 11.6518C6.93329 11.6873 6.91924 11.7214 6.89424 11.7465C6.86923 11.7716 6.83532 11.7857 6.79995 11.7857H3.86659C3.83122 11.7857 3.79731 11.7716 3.7723 11.7465C3.7473 11.7214 3.73325 11.6873 3.73325 11.6518V9.50893C3.73325 9.40237 3.77539 9.30017 3.85041 9.22482C3.92542 9.14947 4.02717 9.10714 4.13326 9.10714H6.53328C6.63937 9.10714 6.74111 9.14947 6.81613 9.22482C6.89114 9.30017 6.93329 9.40237 6.93329 9.50893V11.6518ZM12.1333 13.9286H9.73332C9.69796 13.9286 9.66404 13.9145 9.63904 13.8893C9.61403 13.8642 9.59999 13.8302 9.59999 13.7946V9.50893C9.59999 9.40237 9.64213 9.30017 9.71714 9.22482C9.79216 9.14947 9.8939 9.10714 9.99999 9.10714H11.8667C11.9728 9.10714 12.0745 9.14947 12.1495 9.22482C12.2245 9.30017 12.2667 9.40237 12.2667 9.50893V13.7946C12.2667 13.8302 12.2526 13.8642 12.2276 13.8893C12.2026 13.9145 12.1687 13.9286 12.1333 13.9286ZM15.8857 4.62991L14.455 1.33225C14.0804 0.522991 13.2247 0 12.275 0H3.72325C2.77357 0 1.9179 0.522991 1.54322 1.33225L0.112542 4.62991C-0.187462 5.2798 0.208876 5.9471 0.209209 5.94743L0.218543 5.9625C0.234876 5.98862 0.263877 6.02946 0.281544 6.05558C0.28321 6.05759 0.284544 6.05993 0.28621 6.06228L0.452879 6.26484C0.459141 6.27246 0.465818 6.27973 0.472879 6.28661L0.639548 6.44833L0.653548 6.46038C0.751432 6.54464 0.856128 6.62057 0.966552 6.68739V6.68906C1.32933 6.9098 1.74263 7.03284 2.16657 7.04632H2.2489C2.89033 7.04752 3.50839 6.80453 3.97859 6.36629L3.98959 6.35592C4.03869 6.30944 4.10362 6.28356 4.17109 6.28356C4.23856 6.28356 4.30348 6.30944 4.35259 6.35592L4.36359 6.36629C4.8388 6.80379 5.46 7.04648 6.10461 7.04648C6.74923 7.04648 7.37043 6.80379 7.84563 6.36629C7.89492 6.32045 7.95963 6.29499 8.0268 6.29499C8.09398 6.29499 8.15868 6.32045 8.20797 6.36629C8.68177 6.8024 9.30069 7.04496 9.94334 7.04638C10.586 7.04781 11.206 6.808 11.6817 6.374C11.7302 6.32881 11.794 6.30371 11.8602 6.30371C11.9264 6.30371 11.9901 6.32881 12.0387 6.374C12.5149 6.81068 13.1376 7.05078 13.7824 7.04632H13.8654C14.2787 7.03082 14.6808 6.90734 15.032 6.68806C15.0637 6.66897 15.094 6.64888 15.1247 6.62879C15.3616 6.46839 15.5678 6.26638 15.7334 6.03248L15.7914 5.94442C15.7972 5.93549 15.8025 5.92612 15.8074 5.91629C15.8627 5.80312 16.1594 5.22121 15.8857 4.62991Z" fill="#242424"/>
</svg>
